# xmcd
#
# Track frame offsets: 
#        150
#        12100
#        23033
#        34281
#        45754
#        57377
#        66788
#        77713
#        87259
#        97797
#        109200
#        121338
#        133281
#        145681
#        159419
#        177820
#        188615
#        198038
#        207549
#        217819
#        228265
#        244603
#        267698
#        279111
#        307031
#
# Disc length: 4581 seconds
#
# Revision: 0
# Processed by: cddbd v1.5.2PL0 Copyright (c) Steve Scherf et al.
# Submitted via: ExactAudioCopy v0.99pb5
#
DISCID=4d11e319
DTITLE=Janis Joplin - Big Brother and the Holding Company [Bonus Tracks]
DYEAR=1967
DGENRE=Blues
TTITLE0=Bye Bye Baby
TTITLE1=Easy Rider
TTITLE2=Intruder
TTITLE3=Light Is Faster Than Sound
TTITLE4=Call on Me
TTITLE5=Women Is Losers
TTITLE6=Blindman
TTITLE7=Down on Me
TTITLE8=Caterpillar
TTITLE9=All Is Loneliness
TTITLE10=Call on Me [Alternate Take][#][-]
TTITLE11=Bye Bye Baby [Alternate Take][#][-]
TTITLE12=What Good Can Drinkin Do
TTITLE13=Trouble In Mind
TTITLE14=Hesitation blues
TTITLE15=Easy rider
TTITLE16=Coo Coo [Single][#][-]
TTITLE17=Down on me
TTITLE18=The last time
TTITLE19=All is loneliness
TTITLE20=Call on me
TTITLE21=Women is losers
TTITLE22=Intruder
TTITLE23=24 Road block
TTITLE24=Ball and chain
EXTD=
EXTT0=
EXTT1=
EXTT2=
EXTT3=
EXTT4=
EXTT5=
EXTT6=
EXTT7=
EXTT8=
EXTT9=
EXTT10=
EXTT11=
EXTT12=
EXTT13=
EXTT14=
EXTT15=
EXTT16=
EXTT17=
EXTT18=
EXTT19=
EXTT20=
EXTT21=
EXTT22=
EXTT23=
EXTT24=
PLAYORDER=
